<svg width="1200" height="419" viewBox="0 0 1200 419" fill="none" xmlns="http://www.w3.org/2000/svg">
<rect width="1200" height="867" fill="#F4F4F6"/>
<g opacity="0.2">
<rect width="363" height="200" rx="16" fill="#CACDD8"/>
<rect y="226" width="115.667" height="89" rx="8" fill="#CACDD8"/>
<rect x="123.667" y="226" width="115.667" height="89" rx="8" fill="#CACDD8"/>
<rect x="247.333" y="226" width="115.667" height="89" rx="8" fill="#CACDD8"/>
<circle cx="29" cy="370" r="29" fill="#CACDD8"/>
<rect x="73" y="341" width="290" height="8" rx="4" fill="#CACDD8"/>
<rect x="73" y="357" width="290" height="4" rx="2" fill="#CACDD8"/>
<rect x="73" y="369" width="290" height="4" rx="2" fill="#CACDD8"/>
<rect x="73" y="381" width="290" height="4" rx="2" fill="#CACDD8"/>
<rect x="73" y="393" width="290" height="4" rx="2" fill="#CACDD8"/>
</g>
<g opacity="0.2">
<rect x="418.5" width="363" height="200" rx="16" fill="#CACDD8"/>
<rect x="418.5" y="226" width="115.667" height="89" rx="8" fill="#CACDD8"/>
<rect x="542.167" y="226" width="115.667" height="89" rx="8" fill="#CACDD8"/>
<rect x="665.833" y="226" width="115.667" height="89" rx="8" fill="#CACDD8"/>
<circle cx="447.5" cy="370" r="29" fill="#CACDD8"/>
<rect x="491.5" y="341" width="290" height="8" rx="4" fill="#CACDD8"/>
<rect x="491.5" y="357" width="290" height="4" rx="2" fill="#CACDD8"/>
<rect x="491.5" y="369" width="290" height="4" rx="2" fill="#CACDD8"/>
<rect x="491.5" y="381" width="290" height="4" rx="2" fill="#CACDD8"/>
<rect x="491.5" y="393" width="290" height="4" rx="2" fill="#CACDD8"/>
</g>
<g opacity="0.2">
<rect x="837" width="363" height="200" rx="16" fill="#CACDD8"/>
<rect x="837" y="226" width="115.667" height="89" rx="8" fill="#CACDD8"/>
<rect x="960.667" y="226" width="115.667" height="89" rx="8" fill="#CACDD8"/>
<rect x="1084.33" y="226" width="115.667" height="89" rx="8" fill="#CACDD8"/>
<circle cx="866" cy="370" r="29" fill="#CACDD8"/>
<rect x="910" y="341" width="290" height="8" rx="4" fill="#CACDD8"/>
<rect x="910" y="357" width="290" height="4" rx="2" fill="#CACDD8"/>
<rect x="910" y="369" width="290" height="4" rx="2" fill="#CACDD8"/>
<rect x="910" y="381" width="290" height="4" rx="2" fill="#CACDD8"/>
<rect x="910" y="393" width="290" height="4" rx="2" fill="#CACDD8"/>
</g>
</svg>
