<svg width="156" height="160" viewBox="0 0 156 160" fill="none" xmlns="http://www.w3.org/2000/svg">
<path d="M74.5589 4.1822C75.5005 3.60586 76.463 3.2485 77.4421 3.12529C77.4615 3.33134 77.6413 3.48608 77.8493 3.47296C77.9699 3.46536 78.0908 3.46153 78.2119 3.46153C78.3331 3.46153 78.4539 3.46536 78.5746 3.47296C78.7826 3.48608 78.9624 3.33134 78.9817 3.12529C79.9609 3.2485 80.9234 3.60586 81.865 4.1822C81.7522 4.35811 81.8006 4.59267 81.9751 4.70933C82.177 4.84439 82.3784 4.99029 82.5793 5.14702C82.7451 5.27637 82.9837 5.24841 83.1152 5.08533C83.8484 5.69688 84.5671 6.44258 85.2693 7.3148C85.1039 7.44546 85.0743 7.68532 85.2038 7.85228C85.3546 8.04689 85.5049 8.24766 85.6544 8.45453C85.7783 8.62584 86.017 8.66495 86.189 8.54263C86.7464 9.33952 87.2924 10.2174 87.8256 11.1723C87.6404 11.2745 87.5724 11.5072 87.6738 11.6932C87.7961 11.9175 87.9177 12.1461 88.0388 12.3788C88.1365 12.5667 88.3677 12.6402 88.5559 12.5434C89.0031 13.4227 89.4406 14.3572 89.8678 15.3444C89.6731 15.4278 89.5824 15.6531 89.6653 15.8482C89.7653 16.0837 89.8648 16.3221 89.9637 16.5635C90.0441 16.7597 90.268 16.8538 90.4643 16.7741C90.8365 17.6987 91.2002 18.6642 91.5548 19.669C91.3547 19.739 91.249 19.9579 91.3186 20.1582C91.4031 20.4015 91.4871 20.647 91.5706 20.8948C91.6384 21.0958 91.856 21.204 92.0571 21.1368C92.3728 22.0878 92.6808 23.0708 92.9806 24.0842C92.7771 24.144 92.6603 24.3573 92.7197 24.561C92.7919 24.8082 92.8635 25.0573 92.9347 25.3081C92.9926 25.5122 93.2049 25.6308 93.409 25.5733C93.6812 26.5456 93.9461 27.5439 94.2035 28.567C93.9977 28.6184 93.8723 28.8268 93.9234 29.0328C93.9848 29.28 94.0458 29.5286 94.1063 29.7787C94.1562 29.9849 94.3637 30.1118 94.57 30.0622C94.806 31.0504 95.0351 32.0602 95.2571 33.0907C95.0496 33.1351 94.9173 33.3392 94.9614 33.5469C95.015 33.7985 95.0681 34.0514 95.1207 34.3055C95.1638 34.5133 95.3671 34.6469 95.5749 34.6041C95.7784 35.5983 95.9754 36.6105 96.1657 37.6402C95.957 37.6785 95.8187 37.8786 95.8568 38.0875C95.9027 38.3394 95.9483 38.5923 95.9934 38.8463C96.0306 39.0553 96.23 39.1947 96.439 39.1577C96.6154 40.1627 96.7854 41.1833 96.949 42.2188C96.7393 42.2517 96.5959 42.4482 96.6286 42.658C96.6685 42.9139 96.708 43.1707 96.747 43.4284C96.7789 43.6383 96.9747 43.7827 97.1846 43.7511C97.3355 44.7592 97.4802 45.7807 97.6187 46.815C97.4083 46.8429 97.2603 47.0361 97.2881 47.2466C97.3215 47.4997 97.3545 47.7537 97.3872 48.0084C97.4142 48.2189 97.6067 48.3678 97.8173 48.341C97.9455 49.3554 98.0678 50.3815 98.1839 51.4188C97.9729 51.4422 97.8208 51.6322 97.8441 51.8432C97.8723 52.0992 97.9001 52.3558 97.9276 52.6131C97.9501 52.8242 98.1394 52.9771 98.3505 52.9548C98.4575 53.9736 98.5586 55.0027 98.6537 56.0415C98.4423 56.0607 98.2864 56.2476 98.3054 56.459C98.3128 56.5413 98.3202 56.6236 98.3275 56.706C98.3285 56.7178 98.3296 56.7296 98.3306 56.7413C98.3452 56.9052 98.3595 57.0692 98.3738 57.2335C98.3921 57.4451 98.5784 57.6017 98.7899 57.5836C98.8766 58.6042 98.9577 59.6339 99.0328 60.672C98.821 60.6872 98.6616 60.871 98.6766 61.0828C98.6946 61.3378 98.7123 61.5932 98.7297 61.8492C98.744 62.061 98.9273 62.2212 99.1391 62.207C99.2069 63.2306 99.2689 64.2621 99.3251 65.301C99.1131 65.3123 98.9504 65.4933 98.9615 65.7053C98.975 65.9617 98.9882 66.2186 99.0009 66.4759C99.0115 66.688 99.1918 66.8514 99.4039 66.841C99.4533 67.8666 99.497 68.8992 99.535 69.9383C99.3228 69.9459 99.1569 70.124 99.1644 70.3362C99.1734 70.5937 99.1821 70.8517 99.1904 71.11C99.1973 71.3222 99.3748 71.4887 99.5869 71.482C99.6186 72.509 99.6446 73.5422 99.6648 74.581C99.4525 74.5849 99.2836 74.7602 99.2874 74.9725C99.2921 75.2308 99.2964 75.4894 99.3004 75.7484C99.3036 75.9607 99.4782 76.1303 99.6905 76.1272C99.7048 77.155 99.7134 78.1882 99.7162 79.2264C99.5039 79.2268 99.3321 79.3992 99.3324 79.6115L99.3327 80L99.3324 80.3885C99.3321 80.6008 99.5039 80.7732 99.7162 80.7736C99.7134 81.8118 99.7048 82.8449 99.6905 83.8728C99.4782 83.8697 99.3036 84.0392 99.3004 84.2515C99.2964 84.5106 99.2921 84.7692 99.2874 85.0275C99.2836 85.2398 99.4525 85.4151 99.6648 85.419C99.6446 86.4578 99.6186 87.491 99.5869 88.518C99.3748 88.5113 99.1973 88.6778 99.1904 88.89C99.1821 89.1483 99.1734 89.4063 99.1644 89.6638C99.1569 89.876 99.3228 90.0541 99.535 90.0617C99.497 91.1008 99.4533 92.1334 99.4039 93.159C99.1918 93.1486 99.0115 93.312 99.0009 93.5241C98.9882 93.7814 98.975 94.0383 98.9615 94.2947C98.9504 94.5067 99.1131 94.6877 99.3251 94.699C99.2689 95.7379 99.2069 96.7694 99.1391 97.793C98.9273 97.7788 98.744 97.9389 98.7297 98.1508C98.7123 98.4067 98.6946 98.6622 98.6766 98.9172C98.6616 99.129 98.821 99.3128 99.0328 99.328C98.9577 100.366 98.8766 101.396 98.7899 102.416C98.5784 102.398 98.3921 102.555 98.3738 102.766C98.3514 103.025 98.3286 103.283 98.3054 103.541C98.2864 103.752 98.4423 103.939 98.6537 103.958C98.5586 104.997 98.4575 106.026 98.3505 107.045C98.1394 107.023 97.9501 107.176 97.9276 107.387C97.9001 107.644 97.8723 107.901 97.8441 108.157C97.8208 108.368 97.9729 108.558 98.1839 108.581C98.0678 109.618 97.9455 110.645 97.8173 111.659C97.6067 111.632 97.4142 111.781 97.3872 111.992C97.3545 112.246 97.3215 112.5 97.2881 112.753C97.2603 112.964 97.4083 113.157 97.6187 113.185C97.4802 114.219 97.3355 115.241 97.1846 116.249C96.9747 116.217 96.7789 116.362 96.747 116.572C96.708 116.829 96.6685 117.086 96.6286 117.342C96.5959 117.552 96.7393 117.748 96.949 117.781C96.7855 118.817 96.6154 119.837 96.439 120.842C96.23 120.805 96.0306 120.945 95.9934 121.154C95.9483 121.408 95.9027 121.661 95.8568 121.913C95.8187 122.121 95.957 122.322 96.1657 122.36C95.9754 123.389 95.7785 124.402 95.575 125.396C95.3671 125.353 95.1638 125.487 95.1207 125.695C95.0681 125.949 95.015 126.201 94.9614 126.453C94.9173 126.661 95.0496 126.865 95.2571 126.909C95.0351 127.94 94.806 128.95 94.57 129.938C94.3637 129.888 94.1562 130.015 94.1063 130.221C94.0458 130.471 93.9848 130.72 93.9234 130.967C93.8723 131.173 93.9977 131.382 94.2035 131.433C93.9461 132.456 93.6812 133.454 93.409 134.427C93.2049 134.369 92.9926 134.488 92.9347 134.692C92.8635 134.943 92.7919 135.192 92.7197 135.439C92.6603 135.643 92.7771 135.856 92.9806 135.916C92.6808 136.929 92.3728 137.912 92.0571 138.863C91.856 138.796 91.6384 138.904 91.5706 139.105C91.4871 139.353 91.4031 139.599 91.3186 139.842C91.249 140.042 91.3547 140.261 91.5548 140.331C91.2002 141.336 90.8365 142.301 90.4643 143.226C90.268 143.146 90.0441 143.24 89.9637 143.436C89.8648 143.678 89.7653 143.916 89.6653 144.152C89.5824 144.347 89.6731 144.572 89.8678 144.656C89.4406 145.643 89.0031 146.577 88.5559 147.457C88.3677 147.36 88.1365 147.433 88.0388 147.621C87.9177 147.854 87.7961 148.082 87.6738 148.307C87.5724 148.493 87.6404 148.726 87.8256 148.828C87.2924 149.783 86.7464 150.66 86.189 151.457C86.017 151.335 85.7783 151.374 85.6544 151.545C85.5049 151.752 85.3547 151.953 85.2038 152.148C85.0743 152.315 85.1039 152.555 85.2693 152.685C84.5671 153.557 83.8484 154.303 83.1152 154.915C82.9837 154.752 82.7451 154.724 82.5793 154.853C82.3784 155.01 82.177 155.156 81.9751 155.291C81.8006 155.407 81.7522 155.642 81.865 155.818C80.9234 156.394 79.9609 156.751 78.9817 156.875C78.9624 156.669 78.7826 156.514 78.5746 156.527C78.4539 156.535 78.3331 156.538 78.2119 156.538C78.0908 156.538 77.9699 156.535 77.8493 156.527C77.6413 156.514 77.4615 156.669 77.4421 156.875C76.463 156.751 75.5005 156.394 74.5589 155.818C74.6716 155.642 74.6232 155.407 74.4488 155.291C74.2468 155.156 74.0454 155.01 73.8445 154.853C73.6787 154.724 73.4402 154.752 73.3086 154.915C72.5755 154.303 71.8567 153.557 71.1545 152.685C71.32 152.555 71.3495 152.315 71.2201 152.148C71.0692 151.953 70.919 151.752 70.7694 151.545C70.6456 151.374 70.4068 151.335 70.2348 151.457C69.6774 150.66 69.1315 149.783 68.5982 148.828C68.7834 148.726 68.8515 148.493 68.7501 148.307C68.6278 148.082 68.5061 147.854 68.3851 147.621C68.2873 147.433 68.0561 147.36 67.8679 147.457C67.4207 146.577 66.9832 145.643 66.5561 144.656C66.7508 144.572 66.8414 144.347 66.7585 144.152C66.6585 143.916 66.559 143.678 66.4602 143.436C66.3798 143.24 66.1558 143.146 65.9595 143.226C65.5873 142.301 65.2237 141.336 64.8691 140.331C65.0692 140.261 65.1749 140.042 65.1053 139.842C65.0207 139.599 64.9367 139.353 64.8532 139.105C64.7855 138.904 64.5678 138.796 64.3667 138.863C64.051 137.912 63.7431 136.929 63.4433 135.916C63.6468 135.856 63.7635 135.643 63.7041 135.439C63.632 135.192 63.5603 134.943 63.4891 134.692C63.4312 134.488 63.2189 134.369 63.0148 134.427C62.7426 133.454 62.4777 132.456 62.2204 131.433C62.4262 131.382 62.5515 131.173 62.5004 130.967C62.439 130.72 62.3781 130.471 62.3176 130.221C62.2677 130.015 62.0601 129.888 61.8539 129.938C61.6178 128.95 61.3887 127.94 61.1667 126.909C61.3742 126.865 61.5066 126.661 61.4624 126.453C61.4089 126.201 61.3558 125.949 61.3031 125.695C61.26 125.487 61.0567 125.353 60.8489 125.396C60.6454 124.402 60.4484 123.389 60.2582 122.36C60.4669 122.322 60.6052 122.121 60.5671 121.913C60.5211 121.661 60.4756 121.408 60.4304 121.154C60.3933 120.945 60.1938 120.805 59.9848 120.842C59.8085 119.837 59.6384 118.817 59.4748 117.781C59.6845 117.748 59.828 117.552 59.7953 117.342C59.7554 117.086 59.7159 116.829 59.6768 116.572C59.645 116.362 59.4491 116.217 59.2392 116.249C59.0884 115.241 58.9436 114.219 58.8051 113.185C59.0155 113.157 59.1635 112.964 59.1358 112.753C59.1023 112.5 59.0693 112.246 59.0366 111.992C59.0096 111.781 58.8171 111.632 58.6066 111.659C58.4783 110.645 58.3561 109.618 58.2399 108.581C58.4509 108.558 58.603 108.368 58.5798 108.157C58.5516 107.901 58.5237 107.644 58.4963 107.387C58.4737 107.176 58.2844 107.023 58.0733 107.045C57.9663 106.026 57.8652 104.997 57.7701 103.958C57.9815 103.939 58.1374 103.752 58.1184 103.541C58.0953 103.283 58.0725 103.025 58.0501 102.766C58.0317 102.555 57.8455 102.398 57.634 102.416C57.5472 101.396 57.4662 100.366 57.3911 99.328C57.6028 99.3128 57.7623 99.129 57.7473 98.9172C57.7292 98.6622 57.7115 98.4068 57.6942 98.1508C57.6798 97.939 57.4966 97.7788 57.2847 97.793C57.217 96.7694 57.1549 95.7379 57.0987 94.699C57.3107 94.6877 57.4735 94.5067 57.4623 94.2947C57.4488 94.0383 57.4357 93.7814 57.4229 93.5241C57.4124 93.312 57.232 93.1486 57.02 93.159C56.9705 92.1334 56.9268 91.1008 56.8888 90.0617C57.101 90.0541 57.2669 89.876 57.2595 89.6638C57.2504 89.4063 57.2417 89.1483 57.2334 88.89C57.2266 88.6778 57.0491 88.5113 56.8369 88.518C56.8053 87.491 56.7793 86.4578 56.7591 85.419C56.9713 85.4151 57.1402 85.2398 57.1364 85.0275C57.1317 84.7692 57.1274 84.5106 57.1235 84.2515C57.1203 84.0393 56.9456 83.8697 56.7333 83.8728C56.7191 82.845 56.7105 81.8118 56.7076 80.7736C56.9199 80.7732 57.0917 80.6008 57.0914 80.3885L57.0912 80L57.0914 79.6115C57.0917 79.3992 56.9199 79.2268 56.7076 79.2264C56.7105 78.1882 56.7191 77.1551 56.7333 76.1272C56.9456 76.1303 57.1203 75.9608 57.1235 75.7485C57.1274 75.4894 57.1317 75.2308 57.1364 74.9725C57.1402 74.7602 56.9713 74.5849 56.7591 74.581C56.7793 73.5422 56.8053 72.509 56.8369 71.482C57.0491 71.4887 57.2266 71.3222 57.2334 71.11C57.2417 70.8517 57.2504 70.5937 57.2595 70.3362C57.2669 70.124 57.101 69.9459 56.8888 69.9383C56.9268 68.8992 56.9705 67.8666 57.02 66.841C57.232 66.8514 57.4124 66.688 57.4229 66.4759C57.4357 66.2186 57.4488 65.9617 57.4623 65.7053C57.4735 65.4933 57.3107 65.3123 57.0987 65.301C57.1549 64.2621 57.217 63.2306 57.2847 62.207C57.4966 62.2212 57.6798 62.0611 57.6942 61.8492C57.7115 61.5932 57.7292 61.3378 57.7473 61.0828C57.7623 60.871 57.6028 60.6872 57.3911 60.672C57.4662 59.6339 57.5472 58.6042 57.634 57.5836C57.8455 57.6017 58.0317 57.4451 58.0501 57.2336C58.0725 56.9748 58.0953 56.7166 58.1184 56.459C58.1374 56.2476 57.9815 56.0607 57.7701 56.0415C57.8652 55.0027 57.9663 53.9736 58.0733 52.9548C58.2844 52.9771 58.4737 52.8242 58.4963 52.6131C58.5237 52.3558 58.5516 52.0992 58.5798 51.8432C58.603 51.6322 58.4509 51.4423 58.2399 51.4188C58.3561 50.3815 58.4783 49.3554 58.6066 48.341C58.8171 48.3678 59.0096 48.2189 59.0366 48.0084C59.0693 47.7537 59.1023 47.4997 59.1358 47.2466C59.1635 47.0361 59.0155 46.8429 58.8051 46.815C58.9436 45.7807 59.0884 44.7592 59.2392 43.7511C59.4491 43.7827 59.645 43.6383 59.6768 43.4284C59.7159 43.1707 59.7554 42.9139 59.7953 42.658C59.8279 42.4482 59.6845 42.2517 59.4748 42.2188C59.6384 41.1833 59.8084 40.1627 59.9848 39.1577C60.1938 39.1946 60.3932 39.0553 60.4304 38.8463C60.4756 38.5923 60.5211 38.3394 60.5671 38.0875C60.6052 37.8786 60.4669 37.6785 60.2582 37.6401C60.4484 36.6105 60.6454 35.5983 60.8489 34.6041C61.0567 34.6469 61.26 34.5133 61.3031 34.3055C61.3558 34.0514 61.4089 33.7985 61.4624 33.5469C61.5066 33.3392 61.3742 33.1351 61.1667 33.0907C61.3887 32.0602 61.6178 31.0504 61.8539 30.0622C62.0601 30.1118 62.2677 29.9849 62.3176 29.7787C62.3781 29.5286 62.439 29.28 62.5004 29.0328C62.5515 28.8268 62.4262 28.6184 62.2204 28.5669C62.4777 27.5439 62.7426 26.5456 63.0148 25.5733C63.2189 25.6308 63.4312 25.5122 63.4891 25.3081C63.5603 25.0573 63.632 24.8082 63.7041 24.5609C63.7635 24.3573 63.6468 24.144 63.4433 24.0842C63.7431 23.0707 64.051 22.0878 64.3667 21.1367C64.5678 21.204 64.7855 21.0958 64.8532 20.8948C64.9367 20.647 65.0207 20.4015 65.1053 20.1582C65.1749 19.9579 65.0692 19.739 64.8691 19.669C65.2237 18.6642 65.5873 17.6987 65.9595 16.7741C66.1558 16.8538 66.3798 16.7597 66.4602 16.5635C66.559 16.3221 66.6585 16.0837 66.7585 15.8482C66.8414 15.6531 66.7508 15.4278 66.5561 15.3443C66.9832 14.3571 67.4207 13.4226 67.8679 12.5434C68.0561 12.6402 68.2873 12.5667 68.3851 12.3788C68.5061 12.1461 68.6278 11.9175 68.7501 11.6932C68.8515 11.5072 68.7834 11.2745 68.5982 11.1723C69.1315 10.2174 69.6774 9.33952 70.2348 8.54263C70.4068 8.66496 70.6456 8.62585 70.7694 8.45451C70.919 8.24765 71.0692 8.04689 71.2201 7.85228C71.3495 7.68532 71.32 7.44545 71.1545 7.3148C71.8567 6.44258 72.5755 5.69688 73.3086 5.08533C73.4402 5.2484 73.6787 5.27637 73.8445 5.14702C74.0454 4.99029 74.2468 4.84439 74.4488 4.70933C74.6232 4.59267 74.6716 4.35811 74.5589 4.1822Z" stroke="#CACDD8" stroke-width="0.769231" stroke-linecap="round" stroke-linejoin="round" stroke-dasharray="0.77 3.85"/>
<path d="M145.973 114.876C145.995 115.985 145.818 117.002 145.43 117.918C145.242 117.831 145.018 117.909 144.925 118.096C144.871 118.205 144.814 118.312 144.753 118.418C144.692 118.523 144.628 118.627 144.56 118.728C144.445 118.902 144.49 119.135 144.659 119.254C144.06 120.048 143.267 120.71 142.296 121.245C142.199 121.06 141.971 120.986 141.783 121.08C141.565 121.189 141.337 121.292 141.1 121.39C140.905 121.47 140.812 121.691 140.888 121.886C139.988 122.223 138.979 122.48 137.868 122.659C137.837 122.45 137.643 122.306 137.434 122.336C137.189 122.371 136.938 122.402 136.683 122.43C136.472 122.452 136.32 122.64 136.341 122.85C135.367 122.94 134.328 122.979 133.228 122.968C133.231 122.757 133.063 122.582 132.851 122.578C132.595 122.573 132.335 122.565 132.072 122.554C131.86 122.546 131.682 122.71 131.672 122.922C130.681 122.873 129.646 122.788 128.571 122.668C128.595 122.457 128.445 122.267 128.234 122.241C127.978 122.211 127.72 122.179 127.46 122.144C127.25 122.116 127.057 122.264 127.028 122.474C126.036 122.337 125.011 122.171 123.958 121.978C123.996 121.769 123.859 121.569 123.651 121.529C123.396 121.482 123.139 121.432 122.881 121.381C122.673 121.339 122.471 121.474 122.429 121.682C121.442 121.482 120.43 121.258 119.396 121.013C119.446 120.806 119.319 120.599 119.113 120.549C118.861 120.488 118.608 120.426 118.354 120.363C118.149 120.311 117.94 120.436 117.888 120.642C116.903 120.392 115.899 120.123 114.878 119.835C114.936 119.631 114.817 119.418 114.613 119.36C114.367 119.29 114.12 119.218 113.872 119.146C113.669 119.086 113.455 119.203 113.395 119.407C112.415 119.117 111.42 118.811 110.41 118.488C110.475 118.286 110.364 118.069 110.162 118.004C109.916 117.925 109.668 117.844 109.42 117.763C109.219 117.697 109.002 117.806 108.935 118.008C107.966 117.687 106.985 117.351 105.991 117C106.062 116.8 105.958 116.58 105.758 116.509C105.515 116.423 105.272 116.336 105.029 116.248C104.829 116.176 104.609 116.28 104.536 116.479C103.572 116.129 102.597 115.765 101.612 115.388C101.688 115.19 101.589 114.968 101.391 114.891C101.148 114.798 100.904 114.703 100.66 114.608C100.462 114.531 100.239 114.629 100.162 114.826C99.2074 114.452 98.2442 114.065 97.273 113.667C97.3538 113.471 97.2603 113.246 97.064 113.165C96.8268 113.067 96.5892 112.969 96.3511 112.869C96.1552 112.788 95.9301 112.88 95.8483 113.076C94.8996 112.679 93.9437 112.27 92.9812 111.85C93.0662 111.656 92.9775 111.429 92.7831 111.344C92.5461 111.24 92.3087 111.136 92.071 111.03C91.8768 110.945 91.6498 111.032 91.5638 111.226C90.622 110.808 89.6742 110.379 88.7209 109.94C88.8099 109.748 88.7259 109.519 88.5332 109.43C88.2972 109.321 88.0609 109.211 87.8243 109.101C87.6319 109.011 87.4031 109.094 87.3133 109.287C86.3801 108.849 85.442 108.403 84.4995 107.947C84.5921 107.756 84.5125 107.526 84.3215 107.433C84.0905 107.321 83.8593 107.208 83.6278 107.094C83.4371 107.001 83.2068 107.08 83.1133 107.27C82.1872 106.815 81.2571 106.351 80.3234 105.878C80.4196 105.688 80.3441 105.457 80.1549 105.361C79.9249 105.244 79.6948 105.126 79.4644 105.008C79.2754 104.911 79.0438 104.986 78.9468 105.175C78.0282 104.702 77.1064 104.221 76.1818 103.732C76.2813 103.544 76.21 103.312 76.0224 103.212C75.7938 103.091 75.5649 102.969 75.336 102.846C75.1487 102.746 74.9158 102.817 74.8155 103.004C73.9047 102.515 72.9915 102.018 72.0762 101.513C72.1788 101.328 72.1115 101.094 71.9257 100.991C71.6986 100.865 71.4713 100.739 71.2439 100.612C71.0584 100.509 70.8243 100.576 70.7209 100.761C69.8181 100.256 68.9136 99.7443 68.0077 99.2246C68.1135 99.0406 68.0501 98.8056 67.8661 98.6997L67.5279 98.5047L67.1899 98.3093C67.0062 98.2029 66.771 98.2655 66.6645 98.4491C65.7615 97.9244 64.8657 97.3972 63.9774 96.8676C64.0862 96.6854 64.0268 96.4493 63.8446 96.3404C63.6212 96.2068 63.3983 96.073 63.1759 95.9392C62.994 95.8297 62.7578 95.8883 62.6482 96.0701C61.7534 95.5298 60.8665 94.9873 59.9877 94.443C60.0997 94.2626 60.0443 94.0256 59.864 93.9135C59.6434 93.7764 59.4234 93.6392 59.2039 93.5019C59.0238 93.3893 58.7867 93.4439 58.6739 93.6238C57.7879 93.0678 56.9105 92.5099 56.042 91.9506C56.1571 91.7722 56.1059 91.5343 55.9275 91.4191C55.7101 91.2786 55.4933 91.138 55.277 90.9974C55.099 90.8816 54.8609 90.932 54.745 91.1099C53.8684 90.5379 53.0012 89.9645 52.1439 89.3902C52.2622 89.2139 52.2153 88.9751 52.0391 88.8566C51.8251 88.7128 51.6118 88.569 51.3991 88.4251C51.2233 88.3061 50.9843 88.3521 50.8652 88.5278C49.9989 87.9397 49.143 87.3506 48.2979 86.761C48.4195 86.587 48.3771 86.3473 48.2032 86.2256C47.9893 86.0758 47.7761 85.9261 47.5636 85.7763C47.3901 85.6539 47.1503 85.6954 47.0278 85.8688C46.1711 85.2627 45.3259 84.6562 44.4926 84.0498C44.6177 83.8783 44.5801 83.6379 44.4087 83.5126C44.1988 83.3593 43.9896 83.206 43.7812 83.0527C43.6102 82.9268 43.3696 82.9634 43.2437 83.1343C42.399 82.5105 41.5671 81.887 40.7486 81.2642C40.8773 81.0954 40.8449 80.8542 40.6762 80.7254C40.4712 80.5688 40.267 80.4123 40.0637 80.2558C39.8955 80.1263 39.6542 80.1576 39.5245 80.3257C38.6938 79.6839 37.8775 79.043 37.076 78.4035C37.2085 78.2377 37.1817 77.9959 37.0161 77.8632C36.8115 77.6992 36.6079 77.5354 36.4052 77.3718C36.2401 77.2383 35.9981 77.264 35.8646 77.4289C35.0456 76.7645 34.243 76.1019 33.4572 75.4416C33.594 75.2793 33.5734 75.0368 33.4111 74.8999C33.2131 74.7328 33.0162 74.5658 32.8205 74.399C32.6589 74.2614 32.4163 74.2806 32.2785 74.442C31.4784 73.7572 30.6967 73.0752 29.9342 72.3966C30.0755 72.2382 30.0619 71.9953 29.9037 71.8538C29.7091 71.6798 29.5158 71.5059 29.3238 71.3324C29.1663 71.19 28.9234 71.2022 28.7809 71.3594C27.9961 70.6463 27.2331 69.9373 26.4924 69.2332C26.6388 69.0797 26.6332 68.8365 26.4798 68.6899C26.2931 68.5113 26.1078 68.3331 25.924 68.1552C25.7715 68.0076 25.5284 68.0114 25.3806 68.1636C24.62 67.4229 23.8849 66.6881 23.1763 65.9599C23.3285 65.8123 23.3325 65.5692 23.1851 65.4166C23.0031 65.2283 22.823 65.0405 22.6447 64.8532C22.4984 64.6996 22.2553 64.6934 22.1014 64.8394C21.3714 64.0668 20.6722 63.3025 20.0048 62.5475C20.1639 62.4074 20.1798 62.1649 20.04 62.0053C19.8666 61.8073 19.6954 61.61 19.5264 61.4133C19.3882 61.2524 19.1459 61.2339 18.9848 61.3716C18.2905 60.5557 17.635 59.7515 17.0197 58.9604C17.1873 58.8308 17.2186 58.59 17.0895 58.4218C16.9295 58.2135 16.7724 58.0062 16.6181 57.7999C16.4912 57.6302 16.2509 57.5951 16.0808 57.7214C15.4386 56.8503 14.8476 55.9967 14.3099 55.1623C14.4883 55.0485 14.5413 54.8118 14.4282 54.6327C14.2876 54.4102 14.151 54.1893 14.0184 53.9699C13.9088 53.7886 13.6735 53.7302 13.4919 53.8387C12.9325 52.8916 12.4467 51.9722 12.0374 51.0835C12.2298 50.9967 12.3164 50.7709 12.231 50.5775C12.1271 50.3424 12.029 50.1098 11.9365 49.8798C11.8577 49.6838 11.6357 49.5882 11.4394 49.6651C11.039 48.6136 10.7569 47.6112 10.5986 46.6635C10.8058 46.6324 10.9505 46.4407 10.9226 46.2322C10.8887 45.9783 10.8644 45.7292 10.8497 45.4852C10.8372 45.2757 10.6591 45.1154 10.4503 45.1239C10.4281 44.0154 10.6053 42.9978 10.9928 42.0824C11.1809 42.169 11.405 42.0908 11.4978 41.9042C11.552 41.7953 11.6095 41.688 11.6705 41.5825C11.7314 41.477 11.7955 41.3735 11.8627 41.2722C11.978 41.0985 11.9336 40.8653 11.7645 40.7457C12.3636 39.9524 13.1562 39.2902 14.1273 38.7552C14.2244 38.9402 14.4522 39.0143 14.6399 38.9204C14.8586 38.811 15.0864 38.7076 15.3233 38.61C15.5178 38.5299 15.6115 38.3088 15.5348 38.1138C16.4347 37.777 17.4438 37.5201 18.5546 37.3411C18.5862 37.5496 18.78 37.694 18.9891 37.6642C19.2346 37.6293 19.4851 37.598 19.7406 37.5705C19.9508 37.5478 20.1031 37.3598 20.082 37.1498C21.0563 37.0599 22.0954 37.0209 23.1953 37.0318C23.1921 37.2433 23.3604 37.4179 23.5722 37.4222C23.8285 37.4273 24.0882 37.4352 24.3511 37.4456C24.5628 37.4541 24.7413 37.2898 24.7506 37.0784C25.7421 37.1269 26.7768 37.2119 27.8523 37.3325C27.828 37.5429 27.9785 37.7335 28.189 37.7586C28.4448 37.789 28.7029 37.8214 28.9632 37.8558C29.1734 37.8836 29.3664 37.7361 29.3948 37.5261C30.3875 37.6635 31.4117 37.829 32.4655 38.0223C32.4267 38.2307 32.564 38.4313 32.7724 38.4705C33.0272 38.5185 33.2837 38.5681 33.5419 38.6193C33.7499 38.6606 33.9521 38.5256 33.9938 38.3177C34.9814 38.5182 35.9929 38.7416 37.027 38.9875C36.9775 39.1938 37.1044 39.4012 37.3106 39.4511C37.562 39.5119 37.8147 39.574 38.0687 39.6374C38.2745 39.6888 38.4831 39.5638 38.5348 39.3581C39.5197 39.6078 40.5237 39.8769 41.5454 40.1653C41.4875 40.3693 41.6058 40.5819 41.8099 40.6401C42.0558 40.7103 42.3028 40.7817 42.5508 40.8541C42.7545 40.9136 42.9679 40.7969 43.0277 40.5933C44.0078 40.8827 45.0033 41.189 46.0132 41.5121C45.9483 41.7141 46.0593 41.9306 46.2612 41.9958C46.5076 42.0753 46.7548 42.1558 47.0028 42.2373C47.2045 42.3035 47.4216 42.1939 47.4881 41.9924C48.457 42.3134 49.4385 42.6493 50.4317 42.9998C50.3608 43.1999 50.4654 43.4196 50.6654 43.4907C50.9077 43.5768 51.1508 43.6639 51.3945 43.7518C51.5942 43.8238 51.8144 43.7204 51.8867 43.5209C52.8514 43.8712 53.8265 44.235 54.8114 44.612C54.7353 44.8102 54.8341 45.0325 55.0322 45.1088C55.2753 45.2024 55.519 45.2969 55.7632 45.3921C55.961 45.4692 56.1838 45.3715 56.2611 45.1738C57.2157 45.5482 58.1789 45.9347 59.1501 46.3332C59.0693 46.5295 59.1629 46.7542 59.3591 46.8351C59.5963 46.933 59.8339 47.0315 60.072 47.1307C60.268 47.2124 60.493 47.1199 60.5749 46.924C61.5235 47.3215 62.4794 47.7302 63.442 48.1498C63.3569 48.3443 63.4456 48.571 63.6401 48.6562C63.877 48.76 64.1144 48.8644 64.3521 48.9696C64.5463 49.0554 64.7733 48.9677 64.8593 48.7737C65.8011 49.1921 66.7489 49.6208 67.7022 50.0598C67.6132 50.2525 67.6973 50.4809 67.89 50.57C68.1259 50.6791 68.3622 50.7889 68.5989 50.8992C68.7913 50.989 69.02 50.9058 69.1099 50.7135C70.043 51.1506 70.9811 51.5973 71.9237 52.0535C71.831 52.2445 71.9107 52.4745 72.1016 52.5673C72.3326 52.6795 72.5639 52.7923 72.7954 52.9057C72.986 52.999 73.2163 52.9202 73.3098 52.7297C74.2359 53.185 75.166 53.6493 76.0997 54.1225C76.0036 54.3118 76.079 54.5431 76.2682 54.6394C76.4982 54.7564 76.7284 54.8739 76.9587 54.992C77.1477 55.0888 77.3793 55.0142 77.4763 54.8253C78.3949 55.2978 79.3167 55.7787 80.2413 56.2681C80.1418 56.4556 80.2132 56.6883 80.4007 56.7879C80.6293 56.9094 80.8582 57.0313 81.0872 57.1538C81.2744 57.2539 81.5073 57.1834 81.6076 56.9963C82.5184 57.4851 83.4317 57.9819 84.347 58.4867C84.2443 58.6725 84.3116 58.9064 84.4974 59.0092C84.7246 59.1349 84.9518 59.261 85.1792 59.3877C85.3647 59.491 85.5988 59.4245 85.7022 59.2391C86.605 59.7436 87.5095 60.2557 88.4154 60.7754C88.3097 60.9595 88.373 61.1945 88.5571 61.3004L88.8953 61.4953L89.2332 61.6907C89.4169 61.7971 89.6521 61.7345 89.7586 61.5509C90.6616 62.0756 91.5574 62.6029 92.4457 63.1324C92.3369 63.3147 92.3963 63.5507 92.5785 63.6597C92.8019 63.7933 93.0248 63.927 93.2472 64.0609C93.4292 64.1704 93.6654 64.1117 93.775 63.9299C94.6698 64.4702 95.5567 65.0127 96.4354 65.5571C96.3235 65.7375 96.3788 65.9745 96.5592 66.0865C96.7797 66.2236 96.9998 66.3608 97.2193 66.4981C97.3993 66.6107 97.6365 66.5562 97.7492 66.3763C98.6352 66.9323 99.5126 67.4901 100.381 68.0494C100.266 68.2278 100.317 68.4657 100.496 68.581C100.713 68.7215 100.93 68.862 101.146 69.0027C101.324 69.1184 101.562 69.0681 101.678 68.8902C102.555 69.4622 103.422 70.0355 104.279 70.6099C104.161 70.7862 104.208 71.025 104.384 71.1434C104.598 71.2872 104.811 71.4311 105.024 71.575C105.2 71.694 105.439 71.648 105.558 71.4722C106.424 72.0604 107.28 72.6495 108.125 73.2391C108.004 73.4131 108.046 73.6527 108.22 73.7745C108.434 73.9242 108.647 74.074 108.859 74.2238C109.033 74.3461 109.273 74.3047 109.395 74.1313C110.252 74.7374 111.097 75.3438 111.93 75.9502C111.805 76.1218 111.843 76.3622 112.014 76.4874C112.224 76.6407 112.434 76.7941 112.642 76.9474C112.813 77.0732 113.053 77.0366 113.179 76.8658C114.024 77.4895 114.856 78.113 115.675 78.7359C115.546 78.9046 115.578 79.1458 115.747 79.2747C115.952 79.4313 116.156 79.5878 116.359 79.7443C116.528 79.8737 116.769 79.8424 116.899 79.6743C117.729 80.3162 118.546 80.9571 119.347 81.5966C119.215 81.7623 119.241 82.0042 119.407 82.1369C119.612 82.3008 119.815 82.4646 120.018 82.6283C120.183 82.7617 120.425 82.7361 120.559 82.5711C121.377 83.2355 122.18 83.8982 122.966 84.5585C122.829 84.7208 122.85 84.9632 123.012 85.1001C123.21 85.2673 123.407 85.4342 123.603 85.601C123.764 85.7387 124.007 85.7194 124.145 85.558C124.945 86.2429 125.726 86.9249 126.489 87.6035C126.348 87.7618 126.361 88.0047 126.519 88.1462C126.714 88.3203 126.907 88.4941 127.099 88.6677C127.257 88.81 127.5 88.7979 127.642 88.6406C128.427 89.3538 129.19 90.0627 129.931 90.7668C129.784 90.9203 129.79 91.1635 129.943 91.3102C130.13 91.4887 130.315 91.667 130.499 91.8449C130.652 91.9925 130.895 91.9886 131.043 91.8364C131.803 92.5772 132.538 93.312 133.247 94.0401C133.095 94.1878 133.091 94.4309 133.238 94.5835C133.42 94.7717 133.6 94.9595 133.778 95.1468C133.925 95.3005 134.168 95.3066 134.322 95.1607C135.052 95.9332 135.751 96.6975 136.418 97.4526C136.259 97.5927 136.243 97.8352 136.383 97.9948C136.557 98.1928 136.728 98.3901 136.897 98.5867C137.035 98.7476 137.277 98.7662 137.438 98.6284C138.133 99.4444 138.788 100.249 139.403 101.04C139.236 101.169 139.205 101.41 139.334 101.578C139.494 101.787 139.651 101.994 139.805 102.2C139.932 102.37 140.172 102.405 140.342 102.279C140.985 103.15 141.575 104.003 142.113 104.838C141.935 104.952 141.882 105.188 141.995 105.367C142.136 105.59 142.272 105.811 142.405 106.03C142.514 106.211 142.75 106.27 142.931 106.161C143.491 107.108 143.976 108.028 144.386 108.917C144.193 109.003 144.107 109.229 144.192 109.423C144.296 109.658 144.394 109.89 144.487 110.12C144.565 110.316 144.787 110.412 144.984 110.335C145.384 111.386 145.666 112.389 145.824 113.337C145.617 113.368 145.473 113.559 145.5 113.768C145.534 114.022 145.559 114.271 145.573 114.515C145.586 114.724 145.764 114.885 145.973 114.876Z" stroke="#CACDD8" stroke-width="0.769231" stroke-linecap="round" stroke-linejoin="round" stroke-dasharray="0.77 3.85"/>
<path d="M10.4506 114.876C10.4283 115.985 10.6055 117.002 10.993 117.918C11.1811 117.831 11.4052 117.909 11.4981 118.096C11.5522 118.205 11.6097 118.312 11.6707 118.418C11.7316 118.523 11.7957 118.627 11.8629 118.728C11.9782 118.902 11.9338 119.135 11.7648 119.254C12.3638 120.048 13.1564 120.71 14.1276 121.245C14.2246 121.06 14.4524 120.986 14.6401 121.08C14.8588 121.189 15.0866 121.292 15.3235 121.39C15.518 121.47 15.6117 121.691 15.5351 121.886C16.4349 122.223 17.4441 122.48 18.5549 122.659C18.5864 122.45 18.7802 122.306 18.9893 122.336C19.2348 122.371 19.4853 122.402 19.7408 122.43C19.951 122.452 20.1033 122.64 20.0822 122.85C21.0565 122.94 22.0957 122.979 23.1956 122.968C23.1923 122.757 23.3606 122.582 23.5724 122.578C23.8287 122.573 24.0884 122.565 24.3513 122.554C24.563 122.546 24.7415 122.71 24.7509 122.922C25.7423 122.873 26.777 122.788 27.8526 122.668C27.8282 122.457 27.9787 122.267 28.1892 122.241C28.445 122.211 28.7031 122.179 28.9634 122.144C29.1736 122.116 29.3666 122.264 29.395 122.474C30.3877 122.337 31.4119 122.171 32.4657 121.978C32.427 121.769 32.5642 121.569 32.7726 121.53C33.0274 121.482 33.2839 121.432 33.5421 121.381C33.7502 121.339 33.9523 121.474 33.994 121.682C34.9816 121.482 35.9931 121.258 37.0272 121.013C36.9777 120.806 37.1046 120.599 37.3108 120.549C37.5622 120.488 37.8149 120.426 38.0689 120.363C38.2748 120.311 38.4833 120.436 38.5351 120.642C39.52 120.392 40.5239 120.123 41.5457 119.835C41.4877 119.631 41.606 119.418 41.8101 119.36C42.056 119.29 42.303 119.218 42.551 119.146C42.7547 119.086 42.9681 119.203 43.0279 119.407C44.008 119.117 45.0035 118.811 46.0134 118.488C45.9485 118.286 46.0595 118.069 46.2615 118.004C46.5078 117.925 46.755 117.844 47.003 117.763C47.2047 117.697 47.4218 117.806 47.4883 118.008C48.4573 117.687 49.4387 117.351 50.4319 117C50.361 116.8 50.4656 116.58 50.6656 116.509C50.908 116.423 51.151 116.336 51.3947 116.248C51.5944 116.176 51.8147 116.28 51.8869 116.479C52.8516 116.129 53.8268 115.765 54.8116 115.388C54.7356 115.19 54.8344 114.968 55.0325 114.891C55.2755 114.798 55.5192 114.703 55.7634 114.608C55.9612 114.531 56.1841 114.629 56.2614 114.826C57.2159 114.452 58.1791 114.065 59.1503 113.667C59.0696 113.471 59.1631 113.246 59.3593 113.165C59.5965 113.067 59.8341 112.969 60.0722 112.869C60.2682 112.788 60.4932 112.88 60.5751 113.076C61.5238 112.679 62.4797 112.27 63.4422 111.85C63.3572 111.656 63.4458 111.429 63.6403 111.344C63.8772 111.24 64.1146 111.136 64.3523 111.03C64.5465 110.945 64.7735 111.032 64.8595 111.226C65.8013 110.808 66.7491 110.379 67.7024 109.94C67.6135 109.748 67.6975 109.519 67.8902 109.43C68.1262 109.321 68.3625 109.211 68.5991 109.101C68.7915 109.011 69.0202 109.094 69.1101 109.287C70.0433 108.849 70.9813 108.403 71.9239 107.947C71.8312 107.756 71.9109 107.526 72.1018 107.433C72.3328 107.321 72.5641 107.208 72.7956 107.094C72.9863 107.001 73.2165 107.08 73.31 107.27C74.2361 106.815 75.1662 106.351 76.0999 105.878C76.0038 105.688 76.0792 105.457 76.2684 105.361C76.4984 105.244 76.7286 105.126 76.959 105.008C77.1479 104.911 77.3796 104.986 77.4765 105.175C78.3951 104.702 79.3169 104.221 80.2415 103.732C80.1421 103.544 80.2134 103.312 80.4009 103.212C80.6296 103.091 80.8584 102.969 81.0874 102.846C81.2746 102.746 81.5076 102.817 81.6078 103.004C82.5186 102.515 83.4319 102.018 84.3472 101.513C84.2445 101.328 84.3118 101.094 84.4976 100.991C84.7248 100.865 84.952 100.739 85.1794 100.612C85.3649 100.509 85.599 100.576 85.7025 100.761C86.6052 100.256 87.5097 99.7443 88.4156 99.2247C88.3099 99.0406 88.3733 98.8056 88.5573 98.6997L88.8955 98.5047L89.2334 98.3093C89.4171 98.2029 89.6523 98.2655 89.7589 98.4491C90.6619 97.9245 91.5577 97.3972 92.4459 96.8676C92.3371 96.6854 92.3965 96.4493 92.5788 96.3404C92.8021 96.2068 93.025 96.073 93.2475 95.9392C93.4294 95.8297 93.6656 95.8883 93.7752 96.0701C94.67 95.5298 95.5569 94.9874 96.4356 94.443C96.3237 94.2626 96.3791 94.0256 96.5594 93.9135C96.7799 93.7764 97 93.6392 97.2195 93.5019C97.3995 93.3893 97.6367 93.4439 97.7494 93.6238C98.6354 93.0678 99.5129 92.5099 100.381 91.9506C100.266 91.7722 100.317 91.5343 100.496 91.4191C100.713 91.2786 100.93 91.138 101.146 90.9974C101.324 90.8816 101.562 90.932 101.678 91.1099C102.555 90.5379 103.422 89.9646 104.279 89.3902C104.161 89.2139 104.208 88.9751 104.384 88.8566C104.598 88.7128 104.812 88.569 105.024 88.4251C105.2 88.3061 105.439 88.3521 105.558 88.5278C106.424 87.9397 107.28 87.3506 108.125 86.761C108.004 86.587 108.046 86.3473 108.22 86.2256C108.434 86.0758 108.647 85.9261 108.86 85.7763C109.033 85.6539 109.273 85.6954 109.395 85.8688C110.252 85.2627 111.097 84.6562 111.931 84.0498C111.806 83.8783 111.843 83.6379 112.015 83.5126C112.225 83.3593 112.434 83.206 112.642 83.0527C112.813 82.9269 113.054 82.9634 113.18 83.1343C114.024 82.5105 114.856 81.887 115.675 81.2642C115.546 81.0954 115.578 80.8542 115.747 80.7254C115.952 80.5688 116.156 80.4123 116.36 80.2558C116.528 80.1263 116.769 80.1576 116.899 80.3257C117.729 79.6839 118.546 79.043 119.347 78.4035C119.215 78.2377 119.242 77.9959 119.407 77.8632C119.612 77.6993 119.815 77.5355 120.018 77.3718C120.183 77.2383 120.425 77.264 120.559 77.4289C121.378 76.7645 122.18 76.1019 122.966 75.4416C122.829 75.2793 122.85 75.0368 123.012 74.8999C123.21 74.7328 123.407 74.5658 123.603 74.399C123.764 74.2614 124.007 74.2807 124.145 74.442C124.945 73.7572 125.727 73.0752 126.489 72.3966C126.348 72.2382 126.361 71.9953 126.52 71.8538C126.714 71.6798 126.908 71.506 127.1 71.3324C127.257 71.19 127.5 71.2022 127.642 71.3594C128.427 70.6463 129.19 69.9373 129.931 69.2333C129.785 69.0797 129.79 68.8365 129.943 68.6899C130.13 68.5113 130.316 68.3331 130.499 68.1552C130.652 68.0076 130.895 68.0114 131.043 68.1636C131.803 67.4229 132.538 66.6881 133.247 65.9599C133.095 65.8123 133.091 65.5692 133.238 65.4166C133.42 65.2283 133.6 65.0405 133.779 64.8532C133.925 64.6996 134.168 64.6934 134.322 64.8394C135.052 64.0668 135.751 63.3025 136.419 62.5475C136.259 62.4074 136.244 62.1649 136.383 62.0053C136.557 61.8073 136.728 61.61 136.897 61.4133C137.035 61.2524 137.277 61.2339 137.439 61.3716C138.133 60.5557 138.788 59.7515 139.404 58.9604C139.236 58.8308 139.205 58.59 139.334 58.4218C139.494 58.2135 139.651 58.0062 139.805 57.7999C139.932 57.6302 140.172 57.5951 140.343 57.7214C140.985 56.8503 141.576 55.9967 142.113 55.1623C141.935 55.0485 141.882 54.8118 141.995 54.6327C142.136 54.4102 142.272 54.1893 142.405 53.9699C142.515 53.7886 142.75 53.7302 142.931 53.8387C143.491 52.8916 143.977 51.9722 144.386 51.0835C144.194 50.9967 144.107 50.7709 144.192 50.5775C144.296 50.3424 144.394 50.1098 144.487 49.8798C144.566 49.6838 144.788 49.5882 144.984 49.6651C145.384 48.6136 145.666 47.6112 145.825 46.6635C145.617 46.6324 145.473 46.4407 145.501 46.2322C145.535 45.9783 145.559 45.7292 145.574 45.4852C145.586 45.2757 145.764 45.1154 145.973 45.1239C145.995 44.0154 145.818 42.9978 145.431 42.0824C145.242 42.169 145.018 42.0908 144.926 41.9042C144.871 41.7953 144.814 41.688 144.753 41.5825C144.692 41.477 144.628 41.3735 144.561 41.2722C144.445 41.0985 144.49 40.8653 144.659 40.7457C144.06 39.9524 143.267 39.2902 142.296 38.7552C142.199 38.9402 141.971 39.0143 141.783 38.9204C141.565 38.811 141.337 38.7076 141.1 38.61C140.906 38.5299 140.812 38.3088 140.888 38.1138C139.989 37.777 138.98 37.5201 137.869 37.3411C137.837 37.5496 137.643 37.694 137.434 37.6642C137.189 37.6293 136.938 37.598 136.683 37.5705C136.473 37.5478 136.32 37.3598 136.341 37.1498C135.367 37.0599 134.328 37.0209 133.228 37.0318C133.231 37.2433 133.063 37.4179 132.851 37.4222C132.595 37.4273 132.335 37.4352 132.072 37.4456C131.861 37.4541 131.682 37.2898 131.673 37.0784C130.681 37.1269 129.647 37.2119 128.571 37.3325C128.595 37.5429 128.445 37.7335 128.234 37.7586C127.979 37.789 127.72 37.8214 127.46 37.8558C127.25 37.8836 127.057 37.7361 127.029 37.5261C126.036 37.6635 125.012 37.829 123.958 38.0223C123.997 38.2307 123.859 38.4313 123.651 38.4706C123.396 38.5185 123.14 38.5681 122.881 38.6193C122.673 38.6606 122.471 38.5256 122.43 38.3177C121.442 38.5182 120.43 38.7416 119.396 38.9875C119.446 39.1938 119.319 39.4012 119.113 39.4511C118.861 39.5119 118.609 39.574 118.355 39.6374C118.149 39.6888 117.94 39.5638 117.889 39.3581C116.904 39.6078 115.9 39.8769 114.878 40.1653C114.936 40.3693 114.818 40.5819 114.613 40.6401C114.368 40.7103 114.121 40.7817 113.873 40.8541C113.669 40.9136 113.455 40.7969 113.396 40.5933C112.416 40.8827 111.42 41.189 110.41 41.5121C110.475 41.7141 110.364 41.9306 110.162 41.9958C109.916 42.0753 109.669 42.1558 109.421 42.2373C109.219 42.3035 109.002 42.1939 108.935 41.9924C107.966 42.3134 106.985 42.6493 105.992 42.9999C106.063 43.1999 105.958 43.4196 105.758 43.4907C105.516 43.5768 105.273 43.6639 105.029 43.7518C104.829 43.8238 104.609 43.7204 104.537 43.5209C103.572 43.8712 102.597 44.235 101.612 44.612C101.688 44.8102 101.589 45.0325 101.391 45.1088C101.148 45.2024 100.904 45.2969 100.66 45.3921C100.462 45.4692 100.24 45.3715 100.162 45.1738C99.2076 45.5482 98.2444 45.9348 97.2732 46.3332C97.354 46.5295 97.2605 46.7542 97.0642 46.8351C96.8271 46.933 96.5894 47.0315 96.3513 47.1307C96.1554 47.2124 95.9303 47.1199 95.8485 46.924C94.8998 47.3215 93.9439 47.7302 92.9814 48.1498C93.0664 48.3443 92.9777 48.571 92.7833 48.6562C92.5463 48.76 92.309 48.8644 92.0712 48.9696C91.877 49.0554 91.65 48.9677 91.564 48.7737C90.6222 49.1921 89.6744 49.6208 88.7212 50.0598C88.8101 50.2525 88.7261 50.4809 88.5334 50.57C88.2974 50.6791 88.0611 50.7889 87.8245 50.8992C87.6321 50.989 87.4034 50.9058 87.3135 50.7135C86.3803 51.1506 85.4422 51.5973 84.4997 52.0535C84.5923 52.2445 84.5127 52.4745 84.3217 52.5673C84.0907 52.6795 83.8595 52.7923 83.628 52.9057C83.4373 52.999 83.207 52.9202 83.1135 52.7297C82.1874 53.185 81.2573 53.6493 80.3237 54.1225C80.4198 54.3118 80.3444 54.5431 80.1551 54.6394C79.9252 54.7564 79.695 54.8739 79.4646 54.992C79.2757 55.0888 79.044 55.0142 78.947 54.8253C78.0284 55.2978 77.1066 55.7787 76.1821 56.2681C76.2815 56.4556 76.2102 56.6883 76.0227 56.7879C75.794 56.9094 75.5652 57.0313 75.3362 57.1538C75.1489 57.2539 74.916 57.1834 74.8158 56.9963C73.9049 57.4851 72.9917 57.9819 72.0764 58.4867C72.179 58.6725 72.1117 58.9064 71.9259 59.0092C71.6988 59.1349 71.4715 59.261 71.2441 59.3877C71.0586 59.491 70.8245 59.4245 70.7211 59.2391C69.8183 59.7436 68.9138 60.2557 68.0079 60.7754C68.1137 60.9595 68.0503 61.1945 67.8663 61.3004L67.5281 61.4953L67.1902 61.6907C67.0064 61.7971 66.7712 61.7345 66.6647 61.5509C65.7617 62.0756 64.8659 62.6029 63.9776 63.1324C64.0865 63.3147 64.027 63.5507 63.8448 63.6597C63.6214 63.7933 63.3985 63.927 63.1761 64.0609C62.9942 64.1704 62.758 64.1117 62.6484 63.9299C61.7536 64.4702 60.8667 65.0127 59.988 65.5571C60.0999 65.7375 60.0445 65.9745 59.8642 66.0866C59.6436 66.2236 59.4236 66.3608 59.2041 66.4981C59.0241 66.6107 58.7869 66.5562 58.6742 66.3763C57.7881 66.9323 56.9107 67.4901 56.0422 68.0494C56.1573 68.2278 56.1061 68.4657 55.9278 68.581C55.7103 68.7215 55.4935 68.862 55.2772 69.0027C55.0992 69.1185 54.8611 69.0681 54.7452 68.8902C53.8686 69.4622 53.0014 70.0355 52.1441 70.6099C52.2624 70.7862 52.2155 71.025 52.0393 71.1434C51.8254 71.2872 51.612 71.4311 51.3993 71.575C51.2235 71.694 50.9845 71.648 50.8654 71.4722C49.9991 72.0604 49.1432 72.6495 48.2981 73.2391C48.4197 73.4131 48.3773 73.6527 48.2034 73.7745C47.9895 73.9242 47.7763 74.074 47.5638 74.2238C47.3903 74.3461 47.1505 74.3047 47.0281 74.1313C46.1713 74.7374 45.3261 75.3438 44.4928 75.9502C44.6179 76.1218 44.5804 76.3622 44.4089 76.4874C44.199 76.6408 43.9898 76.7941 43.7815 76.9474C43.6104 77.0732 43.3699 77.0367 43.2439 76.8658C42.3992 77.4895 41.5674 78.113 40.7488 78.7359C40.8775 78.9047 40.8451 79.1458 40.6764 79.2747C40.4714 79.4313 40.2672 79.5878 40.0639 79.7443C39.8957 79.8738 39.6544 79.8424 39.5248 79.6743C38.6941 80.3162 37.8777 80.9571 37.0762 81.5966C37.2088 81.7623 37.182 82.0042 37.0163 82.1369C36.8117 82.3008 36.6081 82.4646 36.4055 82.6283C36.2403 82.7617 35.9984 82.7361 35.8648 82.5711C35.0459 83.2356 34.2432 83.8982 33.4575 84.5585C33.5942 84.7208 33.5736 84.9632 33.4114 85.1001C33.2134 85.2673 33.0165 85.4342 32.8207 85.601C32.6591 85.7387 32.4166 85.7194 32.2788 85.558C31.4786 86.2429 30.697 86.9249 29.9345 87.6035C30.0757 87.7618 30.0621 88.0047 29.9039 88.1462C29.7093 88.3203 29.516 88.4941 29.324 88.6677C29.1665 88.81 28.9236 88.7979 28.7811 88.6406C27.9963 89.3538 27.2333 90.0627 26.4926 90.7668C26.639 90.9203 26.6334 91.1635 26.4801 91.3102C26.2933 91.4888 26.108 91.667 25.9243 91.8449C25.7718 91.9925 25.5286 91.9886 25.3808 91.8364C24.6202 92.5772 23.8852 93.312 23.1765 94.0401C23.3287 94.1878 23.3327 94.4309 23.1853 94.5835C23.0034 94.7717 22.8232 94.9595 22.6449 95.1468C22.4986 95.3005 22.2555 95.3066 22.1016 95.1607C21.3716 95.9332 20.6724 96.6975 20.005 97.4526C20.1642 97.5927 20.18 97.8352 20.0402 97.9948C19.8668 98.1928 19.6956 98.3901 19.5266 98.5867C19.3884 98.7476 19.1461 98.7662 18.985 98.6284C18.2907 99.4444 17.6353 100.249 17.0199 101.04C17.1875 101.169 17.2188 101.41 17.0897 101.578C16.9297 101.787 16.7726 101.994 16.6183 102.2C16.4914 102.37 16.2511 102.405 16.081 102.279C15.4388 103.15 14.8479 104.003 14.3101 104.838C14.4885 104.952 14.5415 105.188 14.4284 105.367C14.2878 105.59 14.1512 105.811 14.0186 106.03C13.909 106.211 13.6737 106.27 13.4921 106.161C12.9328 107.108 12.4469 108.028 12.0376 108.917C12.23 109.003 12.3167 109.229 12.2312 109.423C12.1274 109.658 12.0292 109.89 11.9367 110.12C11.8579 110.316 11.6359 110.412 11.4396 110.335C11.0392 111.386 10.7571 112.389 10.5989 113.337C10.8061 113.368 10.9507 113.559 10.9228 113.768C10.8889 114.022 10.8646 114.271 10.8499 114.515C10.8374 114.724 10.6594 114.885 10.4506 114.876Z" stroke="#CACDD8" stroke-width="0.769231" stroke-linecap="round" stroke-linejoin="round" stroke-dasharray="0.77 3.85"/>
<path d="M98.9288 59.2308C107.429 59.2308 114.319 52.3428 114.319 43.8462C114.319 35.3495 107.429 28.4615 98.9288 28.4615C90.4286 28.4615 83.5381 35.3495 83.5381 43.8462C83.5381 52.3428 90.4286 59.2308 98.9288 59.2308Z" fill="#EBF4FF"/>
<path d="M103.151 37.395C103.087 37.395 103.023 37.3789 102.967 37.3469C101.429 36.5536 100.098 36.2171 98.5038 36.2171C96.9173 36.2171 95.4109 36.5937 94.0407 37.3469C93.8484 37.4511 93.608 37.3789 93.4958 37.1866C93.3916 36.9943 93.4638 36.7459 93.6561 36.6418C95.1464 35.8325 96.7811 35.4158 98.5038 35.4158C100.211 35.4158 101.701 35.7924 103.336 36.6338C103.536 36.7379 103.608 36.9783 103.504 37.1706C103.432 37.3148 103.295 37.395 103.151 37.395V37.395ZM91.6849 41.6017C91.6048 41.6017 91.5247 41.5777 91.4525 41.5296C91.2682 41.4014 91.2282 41.153 91.3564 40.9687C92.1497 39.8469 93.1593 38.9655 94.3612 38.3485C96.8772 37.0504 100.098 37.0424 102.622 38.3405C103.824 38.9575 104.834 39.8309 105.627 40.9446C105.755 41.1209 105.715 41.3773 105.531 41.5055C105.347 41.6338 105.098 41.5937 104.97 41.4094C104.249 40.3998 103.336 39.6065 102.254 39.0536C99.9541 37.8757 97.0134 37.8757 94.7218 39.0616C93.632 39.6225 92.7186 40.4238 91.9974 41.4334C91.9333 41.5456 91.8131 41.6017 91.6849 41.6017V41.6017ZM96.6929 51.2732C96.5888 51.2732 96.4846 51.2331 96.4125 51.153C95.7154 50.4559 95.3388 50.0072 94.8019 49.0376C94.249 48.052 93.9606 46.8501 93.9606 45.56C93.9606 43.1802 95.9958 41.2411 98.4958 41.2411C100.996 41.2411 103.031 43.1802 103.031 45.56C103.031 45.7844 102.855 45.9607 102.63 45.9607C102.406 45.9607 102.23 45.7844 102.23 45.56C102.23 43.6209 100.555 42.0424 98.4958 42.0424C96.4365 42.0424 94.7618 43.6209 94.7618 45.56C94.7618 46.7139 95.0182 47.7796 95.507 48.645C96.0198 49.5664 96.3724 49.9591 96.9894 50.5841C97.1416 50.7443 97.1416 50.9927 96.9894 51.153C96.9013 51.2331 96.7971 51.2732 96.6929 51.2732ZM102.438 49.7908C101.485 49.7908 100.643 49.5504 99.9541 49.0777C98.7602 48.2684 98.0471 46.9543 98.0471 45.56C98.0471 45.3357 98.2234 45.1594 98.4477 45.1594C98.6721 45.1594 98.8484 45.3357 98.8484 45.56C98.8484 46.6898 99.4253 47.7555 100.403 48.4126C100.972 48.7972 101.637 48.9815 102.438 48.9815C102.63 48.9815 102.951 48.9575 103.271 48.9014C103.488 48.8613 103.696 49.0055 103.736 49.2299C103.776 49.4463 103.632 49.6546 103.408 49.6947C102.951 49.7828 102.55 49.7908 102.438 49.7908V49.7908ZM100.828 51.4414C100.795 51.4414 100.755 51.4334 100.723 51.4254C99.4493 51.0729 98.616 50.6001 97.7426 49.7427C96.6208 48.6289 96.0038 47.1466 96.0038 45.56C96.0038 44.262 97.1096 43.2043 98.4718 43.2043C99.8339 43.2043 100.94 44.262 100.94 45.56C100.94 46.4174 101.685 47.1145 102.606 47.1145C103.528 47.1145 104.273 46.4174 104.273 45.56C104.273 42.5392 101.669 40.0873 98.4638 40.0873C96.1881 40.0873 94.1048 41.3533 93.1673 43.3164C92.8548 43.9655 92.6945 44.7267 92.6945 45.56C92.6945 46.185 92.7506 47.1706 93.2314 48.4527C93.3115 48.661 93.2073 48.8934 92.999 48.9655C92.7907 49.0456 92.5583 48.9334 92.4862 48.7331C92.0936 47.6834 91.9013 46.6418 91.9013 45.56C91.9013 44.5985 92.0856 43.7251 92.4461 42.9639C93.5118 40.7283 95.8756 39.278 98.4638 39.278C102.11 39.278 105.074 42.0905 105.074 45.552C105.074 46.8501 103.969 47.9078 102.606 47.9078C101.244 47.9078 100.138 46.8501 100.138 45.552C100.138 44.6946 99.3932 43.9975 98.4718 43.9975C97.5503 43.9975 96.8051 44.6946 96.8051 45.552C96.8051 46.9222 97.3339 48.2043 98.3035 49.1658C99.0647 49.919 99.7939 50.3357 100.924 50.6482C101.14 50.7043 101.26 50.9286 101.204 51.137C101.164 51.3213 100.996 51.4414 100.828 51.4414V51.4414Z" fill="#043CB5"/>
<path d="M121.236 95.3846C129.736 95.3846 136.627 88.4966 136.627 80C136.627 71.5034 129.736 64.6154 121.236 64.6154C112.736 64.6154 105.846 71.5034 105.846 80C105.846 88.4966 112.736 95.3846 121.236 95.3846Z" fill="#F5F0FC"/>
<rect x="124.5" y="77.4977" width="5.02136" height="8.33473" rx="1.21839" stroke="#5817BD" stroke-width="0.961538"/>
<line x1="112.535" y1="85.8325" x2="116.715" y2="85.8325" stroke="#5817BD" stroke-width="0.961538" stroke-linecap="round"/>
<path fill-rule="evenodd" clip-rule="evenodd" d="M128.304 73.8132H115.249C114.842 73.8132 114.511 74.1435 114.511 74.5508V84.6141C114.511 85.0214 114.842 85.3517 115.249 85.3517H122.57V86.3132H125.795V85.3517H128.304C128.711 85.3517 129.041 85.0214 129.041 84.6141V78.7828H130.003V75.442H129.041V74.5508C129.041 74.1435 128.711 73.8132 128.304 73.8132ZM115.249 72.8517C114.311 72.8517 113.55 73.6124 113.55 74.5508V84.6141C113.55 85.5525 114.311 86.3132 115.249 86.3132H128.304C129.242 86.3132 130.003 85.5525 130.003 84.6141V74.5508C130.003 73.6124 129.242 72.8517 128.304 72.8517H115.249Z" fill="#5817BD"/>
<path d="M56.6212 127.692C65.1214 127.692 72.0119 120.804 72.0119 112.308C72.0119 103.811 65.1214 96.9231 56.6212 96.9231C48.121 96.9231 41.2305 103.811 41.2305 112.308C41.2305 120.804 48.121 127.692 56.6212 127.692Z" fill="#E3FCEC"/>
<path d="M56.6149 103.846C54.3703 103.846 52.2185 104.737 50.6318 106.325C49.0445 107.911 48.1533 110.063 48.1533 112.308C48.1533 114.552 49.0446 116.704 50.6318 118.291C52.2183 119.878 54.3703 120.769 56.6149 120.769C58.8594 120.769 61.0112 119.878 62.598 118.291C64.1853 116.704 65.0764 114.552 65.0764 112.308C65.0736 110.065 64.1816 107.913 62.5951 106.327C61.0093 104.741 58.8579 103.849 56.6149 103.846ZM56.6149 119.641C54.6701 119.641 52.8044 118.868 51.4293 117.493C50.0543 116.118 49.2815 114.252 49.2815 112.308C49.2815 110.363 50.0543 108.497 51.4293 107.122C52.8043 105.747 54.6701 104.974 56.6149 104.974C58.5597 104.974 60.4253 105.747 61.8004 107.122C63.1754 108.497 63.9482 110.363 63.9482 112.308C63.9461 114.252 63.1726 116.116 61.7983 117.491C60.4233 118.865 58.559 119.639 56.6149 119.641ZM52.6661 110.333C52.6661 109.992 52.872 109.683 53.1886 109.552C53.5045 109.421 53.8684 109.493 54.1109 109.735C54.3528 109.977 54.4247 110.341 54.2943 110.657C54.1631 110.974 53.8543 111.18 53.5123 111.18C53.0448 111.18 52.6661 110.801 52.6661 110.333ZM60.5636 110.333C60.5636 110.675 60.3577 110.984 60.0411 111.115C59.7252 111.246 59.3613 111.174 59.1188 110.932C58.8769 110.69 58.805 110.326 58.9354 110.01C59.0666 109.693 59.3754 109.487 59.7174 109.487C60.1849 109.487 60.5636 109.866 60.5636 110.333ZM60.3224 114.064C60.5777 114.243 60.6404 114.594 60.462 114.85C59.5856 116.108 58.1486 116.858 56.615 116.858C55.0814 116.858 53.6444 116.108 52.768 114.85C52.682 114.727 52.6481 114.575 52.6742 114.428C52.7003 114.28 52.7842 114.149 52.9069 114.063C53.0296 113.978 53.1819 113.944 53.3293 113.971C53.4766 113.997 53.6078 114.081 53.6931 114.204C54.3588 115.16 55.4503 115.73 56.6153 115.73C57.7802 115.73 58.8717 115.16 59.5375 114.204C59.7159 113.949 60.0671 113.887 60.323 114.064L60.3224 114.064Z" fill="#0E7C3A"/>
<path d="M35.8507 68.4615C42.6508 68.4615 48.1632 62.9512 48.1632 56.1538C48.1632 49.3565 42.6508 43.8462 35.8507 43.8462C29.0505 43.8462 23.5381 49.3565 23.5381 56.1538C23.5381 62.9512 29.0505 68.4615 35.8507 68.4615Z" fill="#F4F4F6"/>
<path fill-rule="evenodd" clip-rule="evenodd" d="M29.9536 61.6666H34.7057V56.9145H29.9536V61.6666ZM30.904 57.8649H33.7553V60.7162H30.904V57.8649ZM31.8545 56.4393H34.7057V55.4888H31.8545V56.4393ZM36.1314 53.1128H35.1809V55.0136H36.1314V53.1128ZM30.904 55.4888H29.9536V56.4393H30.904V55.4888ZM36.1314 51.6871H35.1809V52.6376H36.1314V51.6871ZM36.1314 50.2615H35.1809V51.2119H36.1314V50.2615ZM29.9536 55.0136H34.7057V50.2615H29.9536V55.0136ZM30.904 51.2119H33.7553V54.0632H30.904V51.2119ZM36.6066 50.2615V55.0136H41.3587V50.2615H36.6066ZM40.4083 54.0632H37.557V51.2119H40.4083V54.0632ZM40.4083 58.3401H41.3587V57.3897H40.4083V58.3401ZM40.4083 60.7162H39.933V59.7657H38.9826V60.7162H38.0322V61.6666H41.3587V59.2905H40.4083V60.7162ZM38.9826 58.8153H38.0322V59.7657H38.9826V58.8153ZM40.4083 56.4393H41.3587V55.4888H40.4083V56.4393ZM37.0818 59.7657V60.7162H38.0322V59.7657H37.0818ZM37.0818 57.3897V58.3401H39.933V57.3897H38.9826V56.4393H38.0322V57.3897H37.0818ZM37.0818 56.4393H38.0322V55.4888H37.0818V55.964H36.1314V56.9145H37.0818V56.4393ZM36.1314 59.2905H37.0818V58.3401H36.1314V56.9145H35.1809V61.6666H37.0818V60.7162H36.1314V59.2905ZM39.933 55.4888H38.9826V56.4393H39.933V55.4888Z" fill="#4B5671"/>
<path d="M78.6425 98.4555C78.7319 98.4555 78.8212 98.4555 78.9165 98.4497C79.9943 98.4028 81.0066 98.0983 82.0069 97.7294C83.3051 97.2492 84.5318 96.5817 85.6394 95.756C86.6993 94.9654 87.6521 94.0285 88.4739 92.9979C89.3016 91.9672 90.0102 90.837 90.6117 89.6659C91.2131 88.4947 91.7252 87.2357 92.1421 85.9767C92.5589 84.7177 92.8983 83.4352 93.1663 82.1411C93.4283 80.8938 93.6248 79.6348 93.7797 78.3699C93.9166 77.2104 94.0119 76.0451 94.0774 74.8798C94.131 73.8843 94.1548 72.8829 94.1489 71.8875C94.1489 71.1086 94.131 70.3298 94.0953 69.5568C94.0536 68.5789 93.4164 67.7239 92.4994 67.3433L78.9581 61.7392C78.2852 61.464 77.529 61.4699 76.868 61.7685L64.3568 67.3257C63.4755 67.7181 62.8681 68.5613 62.8264 69.5158C62.7669 70.7924 62.755 72.069 62.7847 73.3456C62.8086 74.4289 62.8681 75.5181 62.9574 76.6014C63.0587 77.8194 63.2016 79.0316 63.3981 80.2379C63.6065 81.5204 63.8685 82.7911 64.202 84.0501C64.5414 85.3325 64.9523 86.5974 65.4585 87.8213C65.9587 89.0452 66.5542 90.228 67.2628 91.3465C67.9714 92.465 68.7753 93.4898 69.7162 94.415C70.663 95.3519 71.7349 96.1659 72.902 96.81C73.831 97.3253 74.8135 97.7353 75.8318 98.0398C76.731 98.3091 77.6898 98.4672 78.6425 98.4614V98.4555Z" fill="#121C2D"/>
<path d="M77.8286 79.2485C77.0096 79.2485 76.3173 78.971 75.7518 78.4158C75.1863 77.8607 74.9035 77.1811 74.9035 76.3771C74.9035 75.573 75.1863 74.8935 75.7518 74.3383C76.3173 73.7831 77.0096 73.5056 77.8286 73.5056C78.6477 73.5056 79.34 73.7831 79.9055 74.3383C80.471 74.8935 80.7538 75.573 80.7538 76.3771C80.7538 77.1811 80.471 77.8607 79.9055 78.4158C79.34 78.971 78.6477 79.2485 77.8286 79.2485ZM83.4839 86.523L82.5088 85.3744V82.5603C82.0408 82.3817 81.6638 82.0977 81.3778 81.7085C81.0918 81.3192 80.9488 80.8821 80.9488 80.3971C80.9488 79.759 81.1763 79.2166 81.6313 78.77C82.0863 78.3233 82.6388 78.1 83.2889 78.1C83.9389 78.1 84.4914 78.3233 84.9464 78.77C85.4015 79.2166 85.629 79.759 85.629 80.3971C85.629 80.8821 85.486 81.3192 85.2 81.7085C84.9139 82.0977 84.5369 82.3817 84.0689 82.5603V82.6943L84.8489 83.4601L84.0689 84.2258L84.8489 84.9915L83.4839 86.523ZM83.2889 81.5457C83.6139 81.5457 83.8901 81.4341 84.1177 81.2107C84.3452 80.9874 84.4589 80.7162 84.4589 80.3971C84.4589 80.0781 84.3452 79.8069 84.1177 79.5836C83.8901 79.3602 83.6139 79.2485 83.2889 79.2485C82.9639 79.2485 82.6876 79.3602 82.4601 79.5836C82.2326 79.8069 82.1188 80.0781 82.1188 80.3971C82.1188 80.7162 82.2326 80.9874 82.4601 81.2107C82.6876 81.4341 82.9639 81.5457 83.2889 81.5457ZM79.4277 80.8949C79.4927 81.4181 79.6585 81.8967 79.925 82.3306C80.1915 82.7645 80.5328 83.141 80.9488 83.4601V85.7573H71.5884V83.9387C71.5884 83.5047 71.7119 83.1091 71.9589 82.7518C72.2059 82.3944 72.5223 82.12 72.9079 81.9286C73.6793 81.5457 74.4784 81.2586 75.3053 81.0672C76.1322 80.8757 76.9751 80.78 77.8341 80.78C78.0905 80.78 78.3541 80.7896 78.625 80.8087C78.8959 80.8279 79.1634 80.8566 79.4277 80.8949Z" fill="white"/>
</svg>
