<svg width="333" height="40" viewBox="0 0 333 40" fill="none" xmlns="http://www.w3.org/2000/svg">
<path d="M11.0905 18.3872C12.4821 18.3872 13.6102 17.1586 13.6102 15.643C13.6102 14.1275 12.4821 12.8989 11.0905 12.8989C9.69893 12.8989 8.57082 14.1275 8.57082 15.643C8.57082 17.1586 9.69893 18.3872 11.0905 18.3872Z" fill="white"/>
<path d="M23.0565 15.643C23.0565 17.1586 24.1846 18.3872 25.5762 18.3872C26.9678 18.3872 28.0959 17.1586 28.0959 15.643C28.0959 14.1275 26.9678 12.8989 25.5762 12.8989C24.1846 12.8989 23.0565 14.1275 23.0565 15.643Z" fill="white"/>
<path fill-rule="evenodd" clip-rule="evenodd" d="M0 18.3333C0 8.20812 8.20811 0 18.3333 0C28.4586 0 36.6667 8.20812 36.6667 18.3333V20C36.6667 31.0457 27.7124 40 16.6667 40H1.41026C0.631392 40 0 39.3686 0 38.5897L0 18.3333ZM10.8267 7.41058C6.65194 7.41058 3.26762 11.0964 3.26762 15.643C3.26762 20.1897 6.65194 23.8755 10.8267 23.8755H16.1811L18.2809 26.9246V27.077L18.3333 27.0008L18.3858 27.077V26.9246L20.4856 23.8755H25.84C30.0147 23.8755 33.3991 20.1897 33.3991 15.643C33.3991 11.0964 30.0147 7.41058 25.84 7.41058C21.9681 7.41058 18.7762 10.5809 18.3333 14.6679C17.8905 10.5809 14.6985 7.41058 10.8267 7.41058Z" fill="white"/>
<path d="M59.5378 12.5469C63.6881 12.5469 66.3151 15.3887 66.3151 19.9492C66.3151 24.5098 63.6979 27.3613 59.5378 27.3613C55.3483 27.3613 52.7506 24.5098 52.7506 19.9492C52.7506 15.3789 55.3874 12.5469 59.5378 12.5469ZM59.5378 15.0469C57.2428 15.0469 55.7682 16.9512 55.7682 19.9492C55.7682 22.9375 57.2135 24.8613 59.5378 24.8613C61.8327 24.8613 63.2975 22.9375 63.2975 19.9492C63.2975 16.9512 61.8229 15.0469 59.5378 15.0469ZM83.7565 16.248L80.8952 27H77.8678L75.944 19.5H75.7682L73.8639 27H70.8756L68.0045 16.248H70.8854L72.487 24.0312H72.6628L74.5475 16.248H77.2624L79.1569 24.0312H79.3327L80.9342 16.248H83.7565ZM85.8854 27V12.1367H88.7272V27H85.8854ZM98.2975 27H91.9694V12.9082H98.1315C100.866 12.9082 102.497 14.2461 102.497 16.4238C102.497 17.918 101.393 19.2168 99.9479 19.4316V19.6074C101.813 19.7539 103.171 21.1504 103.171 22.9668C103.171 25.4473 101.305 27 98.2975 27ZM94.9186 15.0957V18.7676H97.1354C98.7272 18.7676 99.5963 18.1035 99.5963 16.9316C99.5963 15.7793 98.7858 15.0957 97.3795 15.0957H94.9186ZM94.9186 24.8027H97.5456C99.2448 24.8027 100.163 24.0801 100.163 22.7324C100.163 21.4141 99.2155 20.7109 97.4772 20.7109H94.9186V24.8027ZM108.503 27.166C106.432 27.166 104.977 25.8965 104.977 23.9336C104.977 21.9902 106.471 20.8574 109.147 20.7012L111.755 20.5449V19.6562C111.755 18.7285 111.11 18.1914 109.938 18.1914C108.913 18.1914 108.229 18.5527 107.995 19.2266H105.378C105.563 17.2539 107.389 16.0137 110.094 16.0137C112.946 16.0137 114.557 17.3613 114.557 19.6562V27H111.803V25.5742H111.628C111.071 26.5703 109.899 27.166 108.503 27.166ZM109.44 25.0859C110.758 25.0859 111.755 24.2168 111.755 23.084V22.2832L109.577 22.4297C108.356 22.5078 107.76 22.9668 107.76 23.7578C107.76 24.5879 108.454 25.0859 109.44 25.0859ZM117.35 27V16.248H120.104V17.9766H120.28C120.778 16.7656 121.872 16.0137 123.464 16.0137C125.856 16.0137 127.145 17.4785 127.145 20.0469V27H124.303V20.6914C124.303 19.1777 123.669 18.3867 122.321 18.3867C121.003 18.3867 120.192 19.3242 120.192 20.7793V27H117.35ZM133.024 20.4961L136.628 16.248H139.86L135.758 20.8574L140.143 27H136.774L133.63 22.5762L132.848 23.3867V27H130.007V12.1367H132.848V20.4961H133.024Z" fill="white"/>
<line x1="157.167" y1="8" x2="157.167" y2="32" stroke="white" stroke-opacity="0.5"/>
<path d="M178.44 28H177.034V17.9922H173.401V16.7266H182.073V17.9922H178.44V28ZM194.291 19.5781L191.932 28H190.564L188.682 21.4844H188.557L186.682 28H185.322L182.963 19.5781H184.322L185.979 26.3125H186.104L187.986 19.5781H189.275L191.158 26.3125H191.283L192.939 19.5781H194.291ZM197.431 17.9531C196.915 17.9531 196.494 17.5312 196.494 17.0156C196.494 16.5 196.915 16.0781 197.431 16.0781C197.947 16.0781 198.369 16.5 198.369 17.0156C198.369 17.5312 197.947 17.9531 197.431 17.9531ZM196.759 28V19.5781H198.103V28H196.759ZM201.384 28V16.2344H202.727V28H201.384ZM206.68 17.9531C206.164 17.9531 205.742 17.5312 205.742 17.0156C205.742 16.5 206.164 16.0781 206.68 16.0781C207.195 16.0781 207.617 16.5 207.617 17.0156C207.617 17.5312 207.195 17.9531 206.68 17.9531ZM206.008 28V19.5781H207.352V28H206.008ZM214.015 28.1484C211.617 28.1484 210.132 26.4922 210.132 23.7891C210.132 21.0781 211.617 19.4297 214.015 19.4297C216.414 19.4297 217.898 21.0781 217.898 23.7891C217.898 26.4922 216.414 28.1484 214.015 28.1484ZM214.015 26.9375C215.609 26.9375 216.507 25.7812 216.507 23.7891C216.507 21.7891 215.609 20.6406 214.015 20.6406C212.421 20.6406 211.523 21.7891 211.523 23.7891C211.523 25.7812 212.421 26.9375 214.015 26.9375ZM230.373 28H225.975V16.7266H230.287C232.358 16.7266 233.623 17.8125 233.623 19.5391C233.623 20.7109 232.764 21.7734 231.678 21.9688V22.0938C233.217 22.2891 234.194 23.3438 234.194 24.8359C234.194 26.8203 232.772 28 230.373 28ZM227.381 17.9688V21.5859H229.631C231.334 21.5859 232.201 20.9766 232.201 19.7812C232.201 18.6328 231.389 17.9688 229.99 17.9688H227.381ZM227.381 26.7578H230.162C231.858 26.7578 232.748 26.0703 232.748 24.7656C232.748 23.4609 231.826 22.7969 230.029 22.7969H227.381V26.7578ZM243.771 19.5781V28H242.49V26.6797H242.365C241.943 27.6172 241.044 28.1484 239.755 28.1484C237.865 28.1484 236.88 27.0234 236.88 25.0312V19.5781H238.224V24.7031C238.224 26.2188 238.787 26.9219 240.13 26.9219C241.615 26.9219 242.427 26.0391 242.427 24.5625V19.5781H243.771ZM247.645 17.9531C247.13 17.9531 246.708 17.5312 246.708 17.0156C246.708 16.5 247.13 16.0781 247.645 16.0781C248.161 16.0781 248.583 16.5 248.583 17.0156C248.583 17.5312 248.161 17.9531 247.645 17.9531ZM246.974 28V19.5781H248.317V28H246.974ZM251.598 28V16.2344H252.942V28H251.598ZM259.308 28.1484C257.152 28.1484 255.769 26.4375 255.769 23.7891C255.769 21.1484 257.168 19.4297 259.308 19.4297C260.48 19.4297 261.472 19.9844 261.949 20.9062H262.066V16.2344H263.41V28H262.129V26.6562H262.004C261.472 27.5938 260.472 28.1484 259.308 28.1484ZM259.621 20.6406C258.089 20.6406 257.16 21.8281 257.16 23.7891C257.16 25.7578 258.082 26.9375 259.621 26.9375C261.152 26.9375 262.097 25.7344 262.097 23.7891C262.097 21.8594 261.144 20.6406 259.621 20.6406ZM271.729 24.1016H266.604V22.8281H271.729V24.1016ZM282.112 28L280.979 24.7734H276.494L275.362 28H273.885L278.041 16.7266H279.432L283.588 28H282.112ZM278.674 18.5469L276.909 23.5781H280.565L278.799 18.5469H278.674ZM290.869 24.1016H285.744V22.8281H290.869V24.1016ZM297.321 28H295.915V17.9922H292.282V16.7266H300.954V17.9922H297.321V28ZM303.672 28V16.2344H305.016V20.9062H305.141C305.563 19.9766 306.446 19.4297 307.735 19.4297C309.516 19.4297 310.641 20.5703 310.641 22.5469V28H309.297V22.875C309.297 21.3828 308.625 20.6406 307.352 20.6406C305.844 20.6406 305.016 21.5938 305.016 23.0156V28H303.672ZM317.195 28.1484C314.797 28.1484 313.312 26.4922 313.312 23.7891C313.312 21.0781 314.797 19.4297 317.195 19.4297C319.594 19.4297 321.078 21.0781 321.078 23.7891C321.078 26.4922 319.594 28.1484 317.195 28.1484ZM317.195 26.9375C318.789 26.9375 319.687 25.7812 319.687 23.7891C319.687 21.7891 318.789 20.6406 317.195 20.6406C315.601 20.6406 314.703 21.7891 314.703 23.7891C314.703 25.7812 315.601 26.9375 317.195 26.9375ZM323.827 28V19.5781H325.109V20.9062H325.234C325.655 19.9766 326.476 19.4297 327.765 19.4297C329.655 19.4297 330.71 20.5469 330.71 22.5469V28H329.366V22.875C329.366 21.3594 328.726 20.6406 327.382 20.6406C326.038 20.6406 325.171 21.5391 325.171 23.0156V28H323.827Z" fill="white"/>
</svg>
