<svg width="48" height="48" viewBox="0 0 48 48" fill="none" xmlns="http://www.w3.org/2000/svg">
<circle cx="24" cy="24" r="24" fill="#117DE3"/>
<path d="M19.944 23.0968C20.7233 23.0968 21.3551 22.4088 21.3551 21.5601C21.3551 20.7114 20.7233 20.0234 19.944 20.0234C19.1647 20.0234 18.533 20.7114 18.533 21.5601C18.533 22.4088 19.1647 23.0968 19.944 23.0968Z" fill="white"/>
<path d="M26.645 21.5601C26.645 22.4088 27.2767 23.0968 28.056 23.0968C28.8353 23.0968 29.467 22.4088 29.467 21.5601C29.467 20.7114 28.8353 20.0234 28.056 20.0234C27.2767 20.0234 26.645 20.7114 26.645 21.5601Z" fill="white"/>
<path fill-rule="evenodd" clip-rule="evenodd" d="M13.7333 23.0667C13.7333 17.3965 18.3299 12.8 24 12.8C29.6701 12.8 34.2667 17.3965 34.2667 23.0667V24C34.2667 30.1856 29.2523 35.2 23.0667 35.2H14.5231C14.0869 35.2 13.7333 34.8464 13.7333 34.4103V23.0667ZM19.7963 16.9499C17.4584 16.9499 15.5632 19.014 15.5632 21.5601C15.5632 24.1062 17.4584 26.1703 19.7963 26.1703H22.7947L23.9706 27.8778V27.9631L24 27.9205L24.0294 27.9631V27.8778L25.2053 26.1703H28.2037C30.5416 26.1703 32.4368 24.1062 32.4368 21.5601C32.4368 19.014 30.5416 16.9499 28.2037 16.9499C26.0355 16.9499 24.248 18.7253 24 21.014C23.752 18.7253 21.9645 16.9499 19.7963 16.9499Z" fill="white"/>
</svg>
