<svg width="48" height="48" viewBox="0 0 48 48" fill="none" xmlns="http://www.w3.org/2000/svg">
<path fill-rule="evenodd" clip-rule="evenodd" d="M24 0C10.7452 0 0 10.7452 0 24C0 37.2548 10.7452 48 24 48C37.2548 48 48 37.2548 48 24C48 17.6348 45.4714 11.5303 40.9706 7.02944C36.4697 2.52856 30.3652 0 24 0ZM24 41.6C14.2798 41.6 6.4 33.7202 6.4 24C6.4 14.2798 14.2798 6.4 24 6.4C33.7202 6.4 41.6 14.2798 41.6 24C41.6 28.6678 39.7457 33.1444 36.4451 36.4451C33.1444 39.7457 28.6678 41.6 24 41.6ZM34.8794 18.08C34.8794 20.8193 32.6587 23.04 29.9194 23.04C27.18 23.04 24.9594 20.8193 24.9594 18.08C24.9594 15.3407 27.18 13.12 29.9194 13.12C32.6514 13.1375 34.8619 15.3479 34.8794 18.08V18.08ZM34.8794 29.92C34.8794 32.6593 32.6587 34.88 29.9194 34.88C27.18 34.88 24.9594 32.6593 24.9594 29.92C24.9594 27.1807 27.18 24.96 29.9194 24.96C32.6514 24.9775 34.8619 27.1879 34.8794 29.92V29.92ZM23.0388 29.92C23.0388 32.6593 20.8181 34.88 18.0788 34.88C15.3394 34.88 13.1188 32.6593 13.1188 29.92C13.1188 27.1807 15.3394 24.96 18.0788 24.96C20.8108 24.9775 23.0213 27.1879 23.0388 29.92V29.92ZM23.0388 18.08C23.0388 20.8193 20.8181 23.04 18.0788 23.04C15.3394 23.04 13.1188 20.8193 13.1188 18.08C13.1188 15.3407 15.3394 13.12 18.0788 13.12C20.8108 13.1375 23.0213 15.3479 23.0388 18.08V18.08Z" fill="#F22F46"/>
</svg>
